PathFileType	4	(X/Y/Z)	regression/subject01/trials/walk2/markers.trc
DataRate	CameraRate	NumFrames	NumMarkers	Units	OrigDataRate	OrigDataStartFrame	OrigNumFrames
200.00000000000426	200.00000000000426	4	64	m	200.00000000000426	195	223
Frame#	Time	CLAV			C7			RACR			RASH			RPSH			RLEL			RMEL			RUA1			RUA2			RUA3			RFAsuperior			RFAradius			RFAulna			RASI			RPSI			RCAL			RTOE			RMT5			RTH1			RTH2			RTH3			RTB1			RTB2			RTB3			RLFC			RMFC			RLMAL			RMMAL			RHJC			RKJC			REJC			RAJC			RSJC			LACR			LASH			LPSH			LLEL			LMEL			LUA1			LUA2			LUA3			LFAsuperior			LFAradius			LFAulna			LASI			LPSI			LCAL			LTOE			LMT5			LTH1			LTH2			LTH3			LTB1			LTB2			LTB3			LLFC			LMFC			LLMAL			LMMAL			LHJC			LKJC			LEJC			LAJC			LSJC			
		X1	Y1	Z1	X2	Y2	Z2	X3	Y3	Z3	X4	Y4	Z4	X5	Y5	Z5	X6	Y6	Z6	X7	Y7	Z7	X8	Y8	Z8	X9	Y9	Z9	X10	Y10	Z10	X11	Y11	Z11	X12	Y12	Z12	X13	Y13	Z13	X14	Y14	Z14	X15	Y15	Z15	X16	Y16	Z16	X17	Y17	Z17	X18	Y18	Z18	X19	Y19	Z19	X20	Y20	Z20	X21	Y21	Z21	X22	Y22	Z22	X23	Y23	Z23	X24	Y24	Z24	X25	Y25	Z25	X26	Y26	Z26	X27	Y27	Z27	X28	Y28	Z28	X29	Y29	Z29	X30	Y30	Z30	X31	Y31	Z31	X32	Y32	Z32	X33	Y33	Z33	X34	Y34	Z34	X35	Y35	Z35	X36	Y36	Z36	X37	Y37	Z37	X38	Y38	Z38	X39	Y39	Z39	X40	Y40	Z40	X41	Y41	Z41	X42	Y42	Z42	X43	Y43	Z43	X44	Y44	Z44	X45	Y45	Z45	X46	Y46	Z46	X47	Y47	Z47	X48	Y48	Z48	X49	Y49	Z49	X50	Y50	Z50	X51	Y51	Z51	X52	Y52	Z52	X53	Y53	Z53	X54	Y54	Z54	X55	Y55	Z55	X56	Y56	Z56	X57	Y57	Z57	X58	Y58	Z58	X59	Y59	Z59	X60	Y60	Z60	X61	Y61	Z61	X62	Y62	Z62	X63	Y63	Z63	X64	Y64	Z64	

196	4.355	2.201266891617046	1.467932673585753	-0.5322301462980933	2.091370678301022	1.547264998094481	-0.5229739832292187	2.177667778621649	1.514665679809865	-0.379900372218637	2.220501051430486	1.450694161800946	-0.3387677345464049	2.123216728407293	1.472334001307587	-0.3323229934277878	2.013893547594878	1.165022840040082	-0.2700701427680396	2.016168935853741	1.148897539130907	-0.358088657546315	2.140792097150146	1.411913969319441	-0.3122525965950529	2.051210023915299	1.253592697029569	-0.300662444548471	2.122487094398243	1.311499502965268	-0.296514837376651	2.036492756610326	1.066407815078052	-0.3020699068278053	2.063523576682102	0.8993903876702729	-0.2722703019971531	2.002486875049232	0.8922459499173649	-0.2829968111101164	2.180894086004163	1.029652253265905	-0.4071452620798468	2.022566034115657	1.068096110411671	-0.4934245469382801	2.102525682422735	0.1246033103605152	-0.4467490473060718	2.353378952065898	0.0764054648240536	-0.4521271668925063	2.27193581425967	0.05321318882670376	-0.3658990963997603	2.185778268890143	0.8146916706520084	-0.3699283423546797	2.305316859410766	0.7831935261358911	-0.4135194323651822	2.253740668718054	0.6790176194582342	-0.3569139218821844	2.259577474592666	0.3928459011457661	-0.3692227349366337	2.284207982431103	0.2970319117482669	-0.4326737898068175	2.228800334095629	0.2268516335740908	-0.3713934734209139	2.297782662606833	0.5818606198373536	-0.3568277812729934	2.320540009216683	0.5787559104236053	-0.4682535987180332	2.179188768366375	0.1235990160433543	-0.3817037880529942	2.198505105273334	0.124455495933112	-0.4845780262973004	2.105715290599816	0.931526027240395	-0.4638781752662575	2.31638306862685	0.576724004182539	-0.4139819697241876	2.018925862429032	1.149827390825148	-0.3188608867264516	2.173478201080385	0.1148624270086845	-0.4430876872829362	2.174928210310271	1.460831344617832	-0.3357486955693887	2.160361980297352	1.525363152269869	-0.6770534193727334	2.197870392083328	1.464683164248644	-0.7273524885171463	2.092803323218281	1.488054190915817	-0.7203921681090398	2.092242774640001	1.145831491430064	-0.8011986756369274	2.082718207144866	1.131242966526638	-0.7133982343020985	2.137575368027422	1.418302353884756	-0.7507762986907486	2.097930103502448	1.241360179129654	-0.7693403640504648	2.150359040903914	1.316688674879777	-0.7640824322770655	2.160720671651851	1.079513653730747	-0.7538194753677868	2.291553077830494	0.9682130858483551	-0.7567465596324389	2.247788689510509	0.9237679731662523	-0.7576900682060269	2.182974592439116	1.038315623344606	-0.6724827589176201	2.023294820309243	1.071130825612362	-0.5863703321987406	1.886627135529392	0.05897073417674987	-0.5725785024436116	2.141266259062679	0.04911412868640098	-0.5541100572000337	2.068660015113732	0.01235483284735783	-0.6434590024182471	2.114769189997523	0.7803266769415738	-0.6895017157796806	2.189175738597252	0.696702362011303	-0.6212929895209521	2.093430873746443	0.6300442029485489	-0.6770291311221481	2.032946989145163	0.3412555247080473	-0.6460831130064851	2.059292387512959	0.2478186064909773	-0.579837500746342	2.011250793203438	0.1738491644500678	-0.6428540301285982	2.073424131569757	0.52666493167338	-0.6599515505169722	2.078420180862604	0.5319333842992983	-0.5464150729560054	1.966889590712306	0.06814183275912333	-0.6335396965941706	1.98047835231864	0.0714482209586807	-0.5298026411186512	2.10696653551796	0.936736296049403	-0.6234557612489948	2.07704733731906	0.5285931307250142	-0.6013483161306904	2.092223027153639	1.132773004906031	-0.7515374422129832	1.958320572228498	0.05992265362393795	-0.5724173711481597	2.152297550963114	1.47482034706553	-0.7243334495401301	
197	4.36	2.207357716476373	1.467309286085073	-0.5318308690822223	2.097533018024244	1.546752023609586	-0.5226734113330982	2.183636699567374	1.514020746360659	-0.3795134212578319	2.22635810073977	1.449992750033717	-0.3383523252328098	2.129088986357139	1.471730885689206	-0.332009637042284	2.017678778728253	1.165363411288032	-0.2703579622043066	2.019991758804051	1.149338639905047	-0.3583938553968306	2.146291803288371	1.411456857550551	-0.3120057307768338	2.055636016673925	1.25372216287488	-0.3007718900316189	2.127291050819478	1.311146306015392	-0.2964307540357622	2.039476667702226	1.066603420263704	-0.3024308625196172	2.064931513131937	0.899309864510339	-0.2727927150189084	2.003861036396572	0.8927279460250102	-0.2836856097279991	2.186709602218337	1.028952752863824	-0.4071804299481301	2.028301899458446	1.067663723087321	-0.4931936710998616	2.122230817150362	0.1171867895110059	-0.4473778303164465	2.374483429635019	0.07677182560019642	-0.4511948398869549	2.29333082554562	0.05146778762142824	-0.3652872906608134	2.190990827133684	0.8135700481258493	-0.3702659713297559	2.310622490507233	0.7821847722951223	-0.413682793408603	2.25879162386444	0.6777675008904217	-0.3577587244313035	2.270225536259659	0.390525551212835	-0.370024186500826	2.298222083388336	0.2953267406338826	-0.4330035375454901	2.244786384730578	0.2236244793655123	-0.3717339043411983	2.302743871917662	0.5805702628394509	-0.3580485995192009	2.325811523078753	0.5780170562348603	-0.4694245998267377	2.198555394600417	0.1188009451451189	-0.3819042186922953	2.218342152132222	0.11991375869529	-0.4846865576228289	2.111299725175046	0.9309604494139393	-0.4638380848587989	2.321339008342195	0.575969482362317	-0.4151837121874398	2.022690081907608	1.150198655327426	-0.3191604168818007	2.193430443944034	0.1096703078058784	-0.4432824558281818	2.180792384107226	1.460175979681531	-0.335381092949958	2.166673704240933	1.524825460945275	-0.6766823545902692	2.204175722235963	1.46412199218283	-0.7269578534367662	2.099125078702722	1.487599178690757	-0.7201077501909985	2.098820135008013	1.145340887903239	-0.8011626838440288	2.089228445407056	1.130677484174543	-0.7133820252391508	2.143944781561773	1.417799213400172	-0.7504866722829261	2.10442230081023	1.240847864155297	-0.7692242880507379	2.156801233940425	1.316203764524349	-0.763861710380526	2.168042578329718	1.079996052552157	-0.7535533167058106	2.300519328123131	0.9706465421555007	-0.7560227457721171	2.257421876665155	0.9255559517828207	-0.7570367834667815	2.188385433531584	1.037730183103329	-0.6725170426198115	2.028888930915478	1.070738392728448	-0.5861391466434043	1.8867364610628	0.05927946785957493	-0.5727658004520032	2.141351072238803	0.04897023526757499	-0.5542067359722105	2.068705398724378	0.01225981205509559	-0.6435437241112774	2.118713587701614	0.7797454438945524	-0.6894117286969633	2.192235449656826	0.695437677654365	-0.6210851070466299	2.095935805398172	0.6296752109815188	-0.6769293841776239	2.033787920519662	0.3412725969712397	-0.6460934163761212	2.059917456865597	0.2477188392744135	-0.5799272573827773	2.011630512236423	0.173924802643178	-0.642961908576194	2.074928037463034	0.5264946633093561	-0.6598520456937871	2.079825998792157	0.5317453408599973	-0.5463104709352978	1.966982914594241	0.06833444527069998	-0.6336892863147565	1.980647926219941	0.07153383369385879	-0.5299588920484751	2.112307592961051	0.936239315557794	-0.6234151390920012	2.078435610039906	0.5284574724752411	-0.6012623156557361	2.098765318235886	1.132243284482431	-0.7515117790667566	1.958430746217758	0.06009813757273541	-0.5725669065923918	2.158610005603419	1.474305221830643	-0.7239866211539144	
198	4.365	2.213465782253389	1.46663206876802	-0.5314119723030419	2.103712161877485	1.54618485275416	-0.5223582801085015	2.189620818019887	1.51332949451423	-0.3791095751275846	2.232230246504234	1.449247467948042	-0.3379165085609365	2.134976332532625	1.471083540465859	-0.3316779989440994	2.021516991884921	1.165651080779555	-0.2706588372273445	2.023877232753809	1.149732025103712	-0.3587126536940016	2.151812093714163	1.410952753670804	-0.311745413173722	2.060105115126578	1.253800615269844	-0.3008853853955954	2.132127363665978	1.310747711133183	-0.2963416442478845	2.042548417116147	1.066761430094455	-0.3028226703622282	2.066500661944641	0.8992143088635118	-0.2733649909792844	2.005399418759963	0.8931728163790531	-0.2843975965021303	2.192532846282309	1.028175318033623	-0.4071868106130424	2.034051354133955	1.067183212738161	-0.4929295535122954	2.142015554393229	0.1100564031327711	-0.4478573359627628	2.395414028790659	0.07745343256596295	-0.4502192967123589	2.31464496131185	0.0500691150485002	-0.3645886748807395	2.196205194946995	0.8123461241108305	-0.3706444131248168	2.315877487270612	0.7810053599460342	-0.4139813466976536	2.26377977915912	0.6763805364317982	-0.3586967927095057	2.280779470553396	0.3882249528883877	-0.3708643729754686	2.312112591735395	0.2937375424573629	-0.4333414378218242	2.260726856027495	0.2205867294644432	-0.3720305836501407	2.30758874227074	0.5791207156253596	-0.3593962417925935	2.330876785426546	0.5771032081626927	-0.4707373642414505	2.21793692352237	0.1142926263801443	-0.3819954416310875	2.238152502809483	0.1156512015940716	-0.4846913419929105	2.116876327899227	0.9303324148623623	-0.4637738097934609	2.326113398865989	0.575044216018318	-0.4165241940010095	2.026513237865207	1.150520618519358	-0.3194734785078686	2.213391864021879	0.1047690041340598	-0.4433596388865807	2.186671650504234	1.459476576119013	-0.3349940787309292	2.173004007525392	1.524226254487098	-0.6762947063786654	2.210500571242204	1.46349707714333	-0.7265432186585038	2.105466344152865	1.487080035462573	-0.7198056282723198	2.105429088056209	1.144782905998655	-0.801100086233161	2.095762211263065	1.130047935901093	-0.7133396618226781	2.150337040246885	1.417230992818126	-0.7501771363442785	2.110941698618393	1.240269396825082	-0.7690849477080832	2.163268976896022	1.315653516691883	-0.7636157598780438	2.175358859334362	1.080402018603539	-0.753250749009455	2.309418361839805	0.9729889749250573	-0.7552483914815595	2.266984280181503	0.9272754327465993	-0.7563441606591244	2.193802444567889	1.03708322455249	-0.6725213297354629	2.034496085131364	1.070303587266037	-0.5858742957008379	1.886841061715789	0.05958097469386096	-0.572954593799587	2.141430364484062	0.04882344069590169	-0.5543030053000725	2.068746459616483	0.01216062509291293	-0.6436284464007214	2.122662847078109	0.7791280553298141	-0.6893050722970933	2.195305264619936	0.6941504197206539	-0.6208677178780704	2.098464375024138	0.6292805768927945	-0.6768199509819155	2.034652482577971	0.3412747550356358	-0.646100779169052	2.060555623420773	0.2476014444949247	-0.580014797057836	2.012017200652455	0.173989094876444	-0.6430687391537856	2.076469320930332	0.5263051651784034	-0.6597474760910917	2.081272814348545	0.5315349868147112	-0.5462009030243824	1.967072849763851	0.06852091686226125	-0.6338393394745117	1.980812873408189	0.07161051068963353	-0.5301155259894406	2.117639881607222	0.9356897512184437	-0.6233496049376119	2.07986531044037	0.5283002756143924	-0.6011710981366206	2.1053347026255	1.131648133443257	-0.7514590607929322	1.958535924475946	0.06026757155985962	-0.5727171270692962	2.164941975242203	1.473726185314302	-0.7236207888284965	
199	4.37	2.21959107684695	1.465902511487791	-0.5309727378058761	2.109907931701521	1.545564719033419	-0.5220277767729271	2.195620028816671	1.512593157189735	-0.3786880552659823	2.238117519620802	1.448459585580208	-0.3374595878470336	2.140878753328838	1.470393007963259	-0.3313273647082771	2.02541203709933	1.165884045251316	-0.2709726232531034	2.027830010647204	1.150075682803624	-0.3590448137876737	2.157353518365118	1.410402247710165	-0.3114710824166176	2.064620063303427	1.253826951343606	-0.3010026723632381	2.136998007654459	1.310303828514143	-0.296246927191362	2.045712550929581	1.066879286106246	-0.3032438458736684	2.068234550434053	0.8990992267797153	-0.2739844205472026	2.007105313242546	0.8935760361874434	-0.2851329926908237	2.198368567734371	1.027322165411451	-0.4071667130786718	2.039816873684657	1.066654574365614	-0.4926309692479311	2.16183671963586	0.1032486589674309	-0.4481882683355993	2.416128069243479	0.07846617416299914	-0.4492165372508039	2.335835682100846	0.04903933507086393	-0.3638154821604441	2.201434028400193	0.8110291951656743	-0.371062546135933	2.321092965855786	0.7796657825631417	-0.4144199664563448	2.268720994506533	0.6748690017315027	-0.3597233656493286	2.291233584210715	0.3859615119360406	-0.3717410321453961	2.325859642387371	0.2922800007356304	-0.4336912492486219	2.276595745487425	0.217760806721445	-0.3722867355648832	2.312334905452622	0.5775257175246609	-0.3608631081852715	2.335747395032472	0.5760224302946357	-0.4721862607535375	2.2372943447259	0.1101034260385136	-0.3819821649798983	2.257893169532037	0.1116957803541588	-0.4845985191735184	2.122450369991113	0.9296432627328715	-0.4636865341505685	2.330721181406851	0.5739577091735372	-0.4179966359211754	2.030399731156373	1.150791402572667	-0.3197998452754236	2.233319941589345	0.1001892236106092	-0.4433241111610139	2.192566019551331	1.458734297295548	-0.3345869479176831	2.179352752134455	1.523567130144603	-0.6758896831763429	2.216844927036365	1.462810165598113	-0.7261078704990436	2.111827059441044	1.486498261771808	-0.7194850695091866	2.112070244979745	1.144159175997885	-0.8010105737308996	2.102321041715967	1.129355622455119	-0.7132708006422599	2.156752093099445	1.416599355844134	-0.7498469942931076	2.117488817995324	1.239626330366405	-0.7689217999371317	2.16976251145597	1.315039686648702	-0.7633443218530177	2.182670173730184	1.080730315962032	-0.7529130455572601	2.318249219916611	0.9752337211522928	-0.7544274624276061	2.276473084166016	0.9289203994199208	-0.7556151688885228	2.199224791984175	1.036378479182736	-0.6724978642411235	2.04011680277951	1.069826934869007	-0.5855745316647196	1.886941777203215	0.05987871540520528	-0.5731425823096918	2.14150508629494	0.04867383803729815	-0.5543998033602152	2.068782484293634	0.0120578145673754	-0.6437129406132154	2.126619068262254	0.7784765676743647	-0.6891833448693109	2.198390290361604	0.6928429731368567	-0.6206445235716656	2.10102070438607	0.6288615529953396	-0.6767020689973399	2.035544529388019	0.3412630369231	-0.646105179008296	2.061210393504211	0.2474671651072692	-0.5801005072474282	2.012412225151228	0.1740435812597356	-0.6431740533298141	2.078053693001757	0.5260970428438121	-0.6596386853169268	2.082769204467684	0.5313025813951486	-0.5460873085812603	1.967159344817937	0.06870357454616777	-0.6339885824112703	1.98097491652824	0.07168038770518359	-0.5302715062599213	2.122965314921521	0.9350898532326962	-0.6232603037577037	2.081343865824187	0.5281217226443685	-0.6010754805719	2.111932333868901	1.130989017533391	-0.7513790265860177	1.95863696180232	0.06043343349479707	-0.5728666108618694	2.171293426966895	1.473084877313453	-0.7232352305696932	
